<?xml version="1.0" encoding="utf-8"?>
<!-- Generator: Adobe Illustrator 18.0.0, SVG Export Plug-In . SVG Version: 6.00 Build 0)  -->
<!DOCTYPE svg PUBLIC "-//W3C//DTD SVG 1.1//EN" "http://www.w3.org/Graphics/SVG/1.1/DTD/svg11.dtd">
<svg version="1.1" id="Layer_1" xmlns="http://www.w3.org/2000/svg" xmlns:xlink="http://www.w3.org/1999/xlink" x="0px" y="0px"
	 viewBox="0 0 164.3 164.2" enable-background="new 0 0 164.3 164.2" xml:space="preserve">
<g>
	<g>
		<path d="M89.5,51h-3l-4.3-11.5c-0.3,0.8-0.6,1.7-0.9,2.5c-0.3,0.9-0.6,1.7-0.9,2.6c-0.4,1-0.8,2.1-1.2,3.2
			c-0.4,1.1-0.8,2.2-1.1,3.2h-3L63.5,19.3h3.4l9.7,26.1c0.3-0.8,0.6-1.6,0.9-2.4c0.3-0.8,0.6-1.7,0.9-2.5v0c0.4-1,0.7-2,1.1-2.9
			c0.3-0.9,0.7-1.9,1.1-2.9c-0.5-1.2-0.9-2.4-1.3-3.6c-0.4-1.2-0.9-2.5-1.3-3.7v0c-0.5-1.3-0.9-2.6-1.5-4.1c-0.5-1.4-1-2.8-1.5-4
			h3.4L83,31.8c0.4,1.2,0.9,2.3,1.3,3.4c0.4,1.1,0.9,2.2,1.3,3.3c0.2,0.6,0.5,1.2,0.7,1.8c0.2,0.5,0.4,1.1,0.6,1.6
			c0.2,0.5,0.4,1.1,0.6,1.6c0.2,0.6,0.4,1.2,0.7,1.9c0.6-1.6,1.2-3.3,1.8-4.9c0.6-1.6,1.2-3.3,1.9-5c1-2.7,2-5.4,3-8.1
			c1-2.7,2-5.4,3-8h3.5L89.5,51z"/>
	</g>
	<g>
		<path d="M63.9,131.3H50.7v15.1h-3.3v-31.6h18.9v3.2H50.7v10h13.3V131.3z"/>
		<path d="M77.7,138.9c-0.7,0-1.4-0.1-2-0.4c-0.6-0.2-1.1-0.6-1.6-1c-0.4-0.4-0.8-0.9-1-1.5c-0.2-0.6-0.4-1.1-0.4-1.8
			c0-0.9,0.3-1.7,1-2.5c0.7-0.8,1.6-1.5,2.7-2.1c0,0,0,0,0,0c0,0,0,0,0.1,0c0,0,0,0,0,0l0,0c0,0,0,0,0,0c0,0,0,0,0,0
			c-0.4-0.4-0.7-0.8-1-1.1c-0.2-0.3-0.4-0.6-0.5-0.9c-0.1-0.3-0.2-0.5-0.2-0.7c0-0.2-0.1-0.4-0.1-0.7c0-0.4,0.1-0.9,0.3-1.3
			c0.2-0.4,0.4-0.8,0.8-1.1c0.3-0.3,0.7-0.6,1.2-0.8c0.5-0.2,1-0.3,1.6-0.3c0.5,0,1,0.1,1.5,0.3c0.4,0.2,0.8,0.4,1.1,0.7
			c0.3,0.3,0.6,0.7,0.7,1.1c0.2,0.4,0.3,0.8,0.3,1.3c0,0.7-0.2,1.4-0.7,2c-0.5,0.6-1.2,1.2-2.3,1.8l-0.1,0c0.3,0.4,0.6,0.7,0.9,1.1
			c0.3,0.4,0.5,0.7,0.9,1.1c0.2,0.3,0.4,0.5,0.6,0.8c0.2,0.3,0.4,0.5,0.6,0.8c0,0,0-0.1,0-0.1c0,0,0,0,0-0.1
			c0.1-0.3,0.3-0.5,0.4-0.9c0.1-0.3,0.3-0.8,0.4-1.3l1.9,0.4c-0.2,0.7-0.5,1.4-0.7,1.9c-0.2,0.6-0.5,1.1-0.7,1.5c0,0,0,0.1,0,0.1
			c0,0,0,0,0,0s0,0,0,0v0c0.1,0.2,0.2,0.3,0.3,0.5s0.2,0.2,0.3,0.4c0.1,0.1,0.2,0.2,0.4,0.4c0.1,0.1,0.3,0.3,0.5,0.5v2
			c-0.6-0.4-1.1-0.8-1.4-1.1c-0.3-0.3-0.6-0.6-0.9-0.9c-0.1-0.1-0.2-0.2-0.2-0.2l-0.1-0.1l-0.1,0.1c-0.6,0.7-1.3,1.2-2.1,1.6
			C79.3,138.8,78.5,139,77.7,138.9z M77.4,130.9c-1,0.6-1.7,1.1-2.1,1.7c-0.4,0.5-0.6,1.1-0.6,1.7c0,0.4,0.1,0.8,0.2,1.1
			c0.2,0.4,0.4,0.7,0.6,1c0.3,0.3,0.6,0.5,0.9,0.7s0.8,0.3,1.2,0.3c0.3,0,0.6,0,0.9-0.1c0.3-0.1,0.6-0.2,0.9-0.4
			c0.3-0.2,0.6-0.4,0.8-0.6c0.3-0.2,0.5-0.5,0.7-0.8l0,0c-0.4-0.5-0.7-0.9-1.1-1.4c-0.3-0.5-0.7-0.9-1.1-1.4
			c-0.3-0.3-0.5-0.6-0.7-0.9C78,131.5,77.7,131.2,77.4,130.9L77.4,130.9z M80.3,126.1c0-0.5-0.2-1-0.5-1.4c-0.3-0.4-0.8-0.6-1.4-0.6
			c-0.5,0-0.9,0.2-1.3,0.5c-0.4,0.4-0.6,0.8-0.6,1.3c0,0.6,0.3,1.1,0.8,1.7l0.9,1.1c0,0,0,0,0,0c0,0,0,0,0,0h0
			c0.8-0.5,1.4-0.9,1.6-1.3C80.2,127.1,80.3,126.6,80.3,126.1z M82.9,135.7l0.5,0l0-0.1h-0.5L82.9,135.7z"/>
		<path d="M94.1,114.8H106c1.6,0,3,0.5,4.4,1.3c1.4,0.8,2.6,1.9,3.6,3.4c1,1.4,1.8,3.1,2.4,5c0.6,1.9,0.9,3.9,0.9,6.1
			c0,2.2-0.3,4.2-0.9,6.1c-0.6,1.9-1.4,3.6-2.4,5c-1,1.4-2.2,2.6-3.5,3.4c-1.4,0.8-2.8,1.3-4.4,1.3h-12V114.8z M97.5,118.2v24.9
			c0.7,0,1.4,0,2.1,0c0.7,0,1.4,0,2.1,0c0.8,0,1.5,0,2.3,0c0.7,0,1.5,0,2.2,0c1.1,0,2.1-0.4,3-1.1c0.9-0.7,1.8-1.6,2.5-2.7
			c0.7-1.1,1.3-2.4,1.7-3.9c0.4-1.5,0.6-3.1,0.6-4.8c0-1.7-0.2-3.3-0.6-4.8c-0.4-1.5-1-2.8-1.7-3.9c-0.7-1.1-1.6-2-2.5-2.7
			c-1-0.7-2-1-3.1-1H97.5z"/>
	</g>
	<g>
		<polygon fill="none" points="35.4,88.9 37.1,89.3 37.1,76.5 35.4,76.9 		"/>
		<polygon fill="none" points="31.1,87.8 32.7,88.2 32.7,77.6 31.1,78 		"/>
		<polygon fill="none" points="48.4,92.3 50,92.7 50,73.1 48.4,73.5 		"/>
		<polygon fill="none" points="39.8,90 41.4,90.5 41.4,75.3 39.8,75.7 		"/>
		<polygon fill="none" points="44.1,91.2 45.7,91.6 45.7,74.2 44.1,74.6 		"/>
		<polygon fill="none" points="15.5,83.7 15.5,82.1 12.6,82.9 		"/>
		<polygon fill="none" points="18.2,84.4 19.8,84.8 19.8,81 18.2,81.4 		"/>
		<polygon fill="none" points="26.8,86.6 28.4,87.1 28.4,78.7 26.8,79.1 		"/>
		<polygon fill="none" points="22.5,85.5 24.1,85.9 24.1,79.9 22.5,80.3 		"/>
		<polygon fill="none" points="74.2,99.1 75.8,99.5 75.8,66.2 74.2,66.7 		"/>
		<polygon fill="none" points="152,82.9 83.7,64.9 83.7,100.9 		"/>
		<polygon fill="none" points="78.5,100.2 81,100.9 81,64.9 78.5,65.5 78.5,65.5 78.5,100.2 		"/>
		<polygon fill="none" points="52.7,93.4 54.3,93.9 54.3,71.9 52.7,72.3 		"/>
		<polygon fill="none" points="57,94.6 58.6,95 58.6,70.8 57,71.2 		"/>
		<polygon fill="none" points="65.6,96.8 67.2,97.3 67.2,68.5 65.6,68.9 		"/>
		<polygon fill="none" points="69.9,98 71.5,98.4 71.5,67.4 69.9,67.8 		"/>
		<polygon fill="none" points="61.3,95.7 62.9,96.1 62.9,69.6 61.3,70.1 		"/>
		<polygon points="82.3,101.2 83.7,100.9 83.7,64.9 82.3,64.5 81,64.9 81,100.9 		"/>
		<path d="M82.3,61.5L1.1,82.9l81.2,21.4l81.2-21.4L82.3,61.5z M15.5,83.7l-2.9-0.8l2.9-0.8V83.7z M19.8,84.8l-1.6-0.4v-2.9l1.6-0.4
			V84.8z M24.1,85.9l-1.6-0.4v-5.2l1.6-0.4V85.9z M28.4,87.1l-1.6-0.4v-7.5l1.6-0.4V87.1z M32.7,88.2l-1.6-0.4V78l1.6-0.4V88.2z
			 M37.1,89.3l-1.6-0.4v-12l1.6-0.4V89.3z M41.4,90.5L39.8,90V75.7l1.6-0.4V90.5z M45.7,91.6l-1.6-0.4V74.6l1.6-0.4V91.6z M50,92.7
			l-1.6-0.4V73.5l1.6-0.4V92.7z M54.3,93.9l-1.6-0.4V72.3l1.6-0.4V93.9z M58.6,95L57,94.6V71.2l1.6-0.4V95z M62.9,96.1l-1.6-0.4
			V70.1l1.6-0.4V96.1z M67.2,97.3l-1.6-0.4V68.9l1.6-0.4V97.3z M71.5,98.4L69.9,98V67.8l1.6-0.4V98.4z M75.8,99.5l-1.6-0.4V66.7
			l1.6-0.4V99.5z M78.5,65.5l2.5-0.6l1.3-0.4l1.4,0.4l68.4,18l-68.4,18l-1.4,0.4l-1.3-0.4l-2.5-0.6h0L78.5,65.5L78.5,65.5z"/>
	</g>
	<g>
		<path d="M82.3,164.2c-45.3,0-82.1-36.8-82.1-82.1S37,0,82.3,0s82.1,36.8,82.1,82.1S127.6,164.2,82.3,164.2z M82.3,1.8
			C38,1.8,2,37.8,2,82.1c0,44.3,36.1,80.4,80.4,80.4s80.4-36.1,80.4-80.4C162.7,37.8,126.6,1.8,82.3,1.8z"/>
	</g>
</g>
</svg>
