<?xml version="1.0" encoding="utf-8"?>
<!-- Generator: Adobe Illustrator 18.0.0, SVG Export Plug-In . SVG Version: 6.00 Build 0)  -->
<!DOCTYPE svg PUBLIC "-//W3C//DTD SVG 1.1//EN" "http://www.w3.org/Graphics/SVG/1.1/DTD/svg11.dtd">
<svg version="1.1" id="Layer_1" xmlns="http://www.w3.org/2000/svg" xmlns:xlink="http://www.w3.org/1999/xlink" x="0px" y="0px"
	 viewBox="0 0 164.3 164.2" enable-background="new 0 0 164.3 164.2" xml:space="preserve">
<g>
	<g>
		<path d="M89.3,51h-3l-4.3-11.5c-0.3,0.8-0.6,1.7-0.9,2.5c-0.3,0.9-0.6,1.7-0.9,2.6c-0.4,1-0.8,2.1-1.2,3.2
			c-0.4,1.1-0.8,2.2-1.1,3.2h-3L63.3,19.3h3.4l9.7,26.1c0.3-0.8,0.6-1.6,0.9-2.4c0.3-0.8,0.6-1.7,0.9-2.5v0c0.4-1,0.7-2,1.1-2.9
			c0.3-0.9,0.7-1.9,1.1-2.9c-0.5-1.2-0.9-2.4-1.3-3.6c-0.4-1.2-0.9-2.5-1.3-3.7v0c-0.5-1.3-0.9-2.6-1.5-4.1c-0.5-1.4-1-2.8-1.5-4
			h3.4l4.6,12.5c0.4,1.2,0.9,2.3,1.3,3.4c0.4,1.1,0.9,2.2,1.3,3.3c0.2,0.6,0.5,1.2,0.7,1.8c0.2,0.5,0.4,1.1,0.6,1.6
			c0.2,0.5,0.4,1.1,0.6,1.6c0.2,0.6,0.4,1.2,0.7,1.9c0.6-1.6,1.2-3.3,1.8-4.9c0.6-1.6,1.2-3.3,1.9-5c1-2.7,2-5.4,3-8.1
			c1-2.7,2-5.4,3-8h3.5L89.3,51z"/>
	</g>
	<g>
		<path d="M63.7,131.3H50.5v15.1h-3.3v-31.6H66v3.2H50.5v10h13.3V131.3z"/>
		<path d="M77.5,138.9c-0.7,0-1.4-0.1-2-0.4c-0.6-0.2-1.1-0.6-1.6-1c-0.4-0.4-0.8-0.9-1-1.5c-0.2-0.6-0.4-1.1-0.4-1.8
			c0-0.9,0.3-1.7,1-2.5c0.7-0.8,1.6-1.5,2.7-2.1c0,0,0,0,0,0c0,0,0,0,0.1,0c0,0,0,0,0,0l0,0c0,0,0,0,0,0c0,0,0,0,0,0
			c-0.4-0.4-0.7-0.8-1-1.1c-0.2-0.3-0.4-0.6-0.5-0.9c-0.1-0.3-0.2-0.5-0.2-0.7c0-0.2-0.1-0.4-0.1-0.7c0-0.4,0.1-0.9,0.3-1.3
			c0.2-0.4,0.4-0.8,0.8-1.1c0.3-0.3,0.7-0.6,1.2-0.8c0.5-0.2,1-0.3,1.6-0.3c0.5,0,1,0.1,1.5,0.3c0.4,0.2,0.8,0.4,1.1,0.7
			c0.3,0.3,0.6,0.7,0.7,1.1c0.2,0.4,0.3,0.8,0.3,1.3c0,0.7-0.2,1.4-0.7,2c-0.5,0.6-1.2,1.2-2.3,1.8l-0.1,0c0.3,0.4,0.6,0.7,0.9,1.1
			c0.3,0.4,0.5,0.7,0.9,1.1c0.2,0.3,0.4,0.5,0.6,0.8c0.2,0.3,0.4,0.5,0.6,0.8c0,0,0-0.1,0-0.1c0,0,0,0,0-0.1
			c0.1-0.3,0.3-0.5,0.4-0.9c0.1-0.3,0.3-0.8,0.4-1.3l1.9,0.4c-0.2,0.7-0.5,1.4-0.7,1.9c-0.2,0.6-0.5,1.1-0.7,1.5c0,0,0,0.1,0,0.1
			c0,0,0,0,0,0s0,0,0,0v0c0.1,0.2,0.2,0.3,0.3,0.5s0.2,0.2,0.3,0.4c0.1,0.1,0.2,0.2,0.4,0.4c0.1,0.1,0.3,0.3,0.5,0.5v2
			c-0.6-0.4-1.1-0.8-1.4-1.1c-0.3-0.3-0.6-0.6-0.9-0.9c-0.1-0.1-0.2-0.2-0.2-0.2l-0.1-0.1l-0.1,0.1c-0.6,0.7-1.3,1.2-2.1,1.6
			C79.1,138.8,78.3,139,77.5,138.9z M77.2,130.9c-1,0.6-1.7,1.1-2.1,1.7c-0.4,0.5-0.6,1.1-0.6,1.7c0,0.4,0.1,0.8,0.2,1.1
			c0.2,0.4,0.4,0.7,0.6,1c0.3,0.3,0.6,0.5,0.9,0.7s0.8,0.3,1.2,0.3c0.3,0,0.6,0,0.9-0.1c0.3-0.1,0.6-0.2,0.9-0.4
			c0.3-0.2,0.6-0.4,0.8-0.6c0.3-0.2,0.5-0.5,0.7-0.8l0,0c-0.4-0.5-0.7-0.9-1.1-1.4c-0.3-0.5-0.7-0.9-1.1-1.4
			c-0.3-0.3-0.5-0.6-0.7-0.9C77.8,131.5,77.6,131.2,77.2,130.9L77.2,130.9z M80.1,126.1c0-0.5-0.2-1-0.5-1.4
			c-0.3-0.4-0.8-0.6-1.4-0.6c-0.5,0-0.9,0.2-1.3,0.5c-0.4,0.4-0.6,0.8-0.6,1.3c0,0.6,0.3,1.1,0.8,1.7l0.9,1.1c0,0,0,0,0,0
			c0,0,0,0,0,0h0c0.8-0.5,1.4-0.9,1.6-1.3C80,127.1,80.1,126.6,80.1,126.1z M82.7,135.7l0.5,0l0-0.1h-0.5L82.7,135.7z"/>
		<path d="M93.9,114.8h11.9c1.6,0,3,0.5,4.4,1.3c1.4,0.8,2.6,1.9,3.6,3.4c1,1.4,1.8,3.1,2.4,5c0.6,1.9,0.9,3.9,0.9,6.1
			c0,2.2-0.3,4.2-0.9,6.1c-0.6,1.9-1.4,3.6-2.4,5c-1,1.4-2.2,2.6-3.5,3.4c-1.4,0.8-2.8,1.3-4.4,1.3h-12V114.8z M97.3,118.2v24.9
			c0.7,0,1.4,0,2.1,0c0.7,0,1.4,0,2.1,0c0.8,0,1.5,0,2.3,0c0.7,0,1.5,0,2.2,0c1.1,0,2.1-0.4,3-1.1c0.9-0.7,1.8-1.6,2.5-2.7
			c0.7-1.1,1.3-2.4,1.7-3.9c0.4-1.5,0.6-3.1,0.6-4.8c0-1.7-0.2-3.3-0.6-4.8c-0.4-1.5-1-2.8-1.7-3.9c-0.7-1.1-1.6-2-2.5-2.7
			c-1-0.7-2-1-3.1-1H97.3z"/>
	</g>
	<g>
		<polygon fill="none" points="82.1,64.5 82.1,101.2 151.8,82.9 		"/>
		<path d="M82.1,61.5L0.9,82.9l81.2,21.4l81.2-21.4L82.1,61.5z M82.1,64.5l69.7,18.3l-69.7,18.3V64.5z"/>
	</g>
	<g>
		<path d="M82.1,164.2C36.8,164.2,0,127.4,0,82.1S36.8,0,82.1,0s82.1,36.8,82.1,82.1S127.4,164.2,82.1,164.2z M82.1,1.8
			C37.8,1.8,1.8,37.8,1.8,82.1c0,44.3,36.1,80.4,80.4,80.4s80.4-36.1,80.4-80.4C162.5,37.8,126.4,1.8,82.1,1.8z"/>
	</g>
</g>
</svg>
